<?xml version="1.0" encoding="UTF-8"?>
<svg width="20px" height="18px" viewBox="0 0 20 18" version="1.1" xmlns="http://www.w3.org/2000/svg" xmlns:xlink="http://www.w3.org/1999/xlink">
    <!-- Generator: Sketch 55.1 (78136) - https://sketchapp.com -->
    <title>icon-user</title>
    <desc>Created with Sketch.</desc>
    <g id="Styleguide" stroke="none" stroke-width="1" fill="none" fill-rule="evenodd">
        <g transform="translate(-823.000000, -652.000000)" fill="#32425C" fill-rule="nonzero" id="top-menu">
            <g transform="translate(-55.000000, 0.000000)">
                <g id="Group-5" transform="translate(878.000000, 560.000000)">
                    <g id="icon-user" transform="translate(0.000000, 92.000000)">
                        <path d="M17.881,14.166 C15.737,13.431 13.625,12.5 12.674,11.776 C12.017,11.275 11.904,10.158 12.157,9.361 C13.275,8.458 14.021,6.884 14.021,5.083 C14.021,2.276 12.221,0 10,0 C7.779,0 5.979,2.276 5.979,5.083 C5.979,6.884 6.725,8.457 7.842,9.36 C8.095,10.158 7.983,11.275 7.325,11.776 C6.375,12.5 4.262,13.43 2.118,14.166 C-0.026,14.902 -1.48342955e-05,18 -1.48342955e-05,18 L20.0000259,18 C20.0000259,18 20.025,14.901 17.881,14.166 Z" id="Shape"></path>
                    </g>
                </g>
            </g>
        </g>
    </g>
</svg>