<?xml version="1.0" encoding="UTF-8"?>
<svg width="20px" height="17px" viewBox="0 0 20 17" version="1.1" xmlns="http://www.w3.org/2000/svg" xmlns:xlink="http://www.w3.org/1999/xlink">
    <!-- Generator: Sketch 55.1 (78136) - https://sketchapp.com -->
    <title>icon-login</title>
    <desc>Created with Sketch.</desc>
    <g id="Styleguide" stroke="none" stroke-width="1" fill="none" fill-rule="evenodd">
        <g transform="translate(-843.000000, -378.000000)" fill="#32425C" fill-rule="nonzero" id="top-menu">
            <g transform="translate(-55.000000, 0.000000)">
                <g id="Group-3" transform="translate(898.000000, 317.000000)">
                    <g id="icon-login" transform="translate(0.000000, 61.000000)">
                        <polygon id="Shape" points="14.1666667 8.5 5.71428571 0 5.71428571 6 0 6 0 11 5.71428571 11 5.71428571 17"></polygon>
                        <path d="M16.1771429,15.01 L11.3895238,15.01 L11.3895238,17 L16.1771429,17 C18.2514286,17 19.0380952,15.19 19.0619048,13.974 L19.0619048,3.028 C19.0380952,1.811 18.2514286,0 16.1771429,0 L11.3895238,0 L11.3895238,1.99 L16.1771429,1.99 C16.9761905,1.99 17.1219048,2.671 17.1390476,3.047 L17.1390476,13.951 C17.1228571,14.327 16.9761905,15.01 16.1771429,15.01 Z" id="Shape"></path>
                    </g>
                </g>
            </g>
        </g>
    </g>
</svg>